<?xml version="1.0" encoding="UTF-8"?><svg id="a" xmlns="http://www.w3.org/2000/svg" viewBox="0 0 108 108"><defs><style>.g{fill:#fff;}.h{fill:#c8ea3b;}.i{fill:#dcfaff;}</style></defs><rect class="g" width="108" height="108" rx="16" ry="16"/><g><path id="b" class="i" d="M81.5,60c-4.4-6.3-12.2-9.1-15.9-10l-1.2,14.1h0c.6,2,1.5,4.1,2.9,5.9,6,8.6,18,10.5,18,10.5,0,0,2.3-11.9-3.7-20.5h-.1Z"/><path id="c" class="h" d="M62.7,46.1v-3.8c0-4.8-3.9-8.7-8.7-8.7s-8.7,3.9-8.7,8.7v3.8c-1.6,0-2.9,1.3-2.9,2.9,.2,17.6,5.7,40.7,11.6,40.7s11.2-22.5,11.6-39.7v-1c0-1.6-1.3-2.9-2.9-2.9Z"/><path id="d" class="i" d="M42.4,50c-3.7,1-11.5,3.7-15.9,10-6,8.5-3.7,20.5-3.7,20.5,0,0,12-1.9,18-10.5,1.3-1.9,2.2-3.9,2.8-5.9l-1.2-14.1Z"/><path id="e" d="M55.4,84c0,.8-.7,1.5-1.5,1.5s-1.5-.7-1.5-1.5,.7-1.5,1.5-1.5,1.5,.7,1.5,1.5Z"/><path id="f" d="M43.8,42.4v2.6c-1.6,.6-2.9,2.1-2.9,4-4.4,1.3-11.4,4.2-15.6,10.3-6.3,9-4,21.1-3.9,21.6,.1,.8,.9,1.3,1.7,1.2,.5,0,12.7-2.1,18.9-11.1,.4-.5,.7-1.1,1-1.7,1,5.1,2.2,9.7,3.6,13.3,2.2,5.8,4.7,8.7,7.4,8.7s5.2-2.9,7.5-8.7c1.3-3.6,2.6-8.2,3.5-13.3,.3,.6,.7,1.1,1,1.7,6.3,9,18.4,11,19,11.1h.2c.7,0,1.3-.5,1.4-1.2,0-.5,2.3-12.7-3.9-21.6-4.3-6.1-11.2-9-15.6-10.3,0-1.9-1.3-3.4-2.9-4v-2.6c0-4.1-2.4-7.6-5.8-9.2,.3-7.2,6.3-13.5,13.1-13.5s1.5-.7,1.5-1.5-.7-1.5-1.5-1.5c-8.5,0-15.3,7.3-15.9,15.5-.5,0-1,0-1.5,0s-1,0-1.5,0c-.7-8.2-7.4-15.5-15.9-15.5s-1.5,.7-1.5,1.5,.7,1.5,1.5,1.5c6.8,0,12.8,6.3,13.1,13.5-3.4,1.6-5.8,5.1-5.8,9.2h-.2Zm18.9,5.2c.8,0,1.5,.6,1.5,1.4s0,2.5-.2,4.4h-20c0-1.6,0-2.7-.2-4.4,0-.8,.6-1.4,1.5-1.4h17.4Zm-23.1,21.6c-4.4,6.2-12.3,8.8-15.6,9.6-.4-3.3-.7-11.7,3.7-17.9,3.6-5.1,9.7-7.7,13.3-8.9v.5l-10.6,14.6c-.5,.7-.3,1.6,.3,2s1.6,.3,2-.3l8.6-11.8c.2,2.3,.5,4.7,.8,7.1-.7,2-1.5,3.7-2.6,5.2h.1Zm19.1,12.2c-1.9,5.1-3.7,6.9-4.7,6.9s-2.8-1.8-4.7-6.8c-2.8-7.3-4.5-17.4-5.1-25.2h8.3v21.8c0,.8,.7,1.5,1.5,1.5s1.5-.7,1.5-1.5v-21.8h8.3c-.6,7.8-2.3,17.9-5.1,25.1Zm21.6-20.6c4.4,6.2,4,14.6,3.7,17.9-3.3-.8-11.2-3.3-15.6-9.6-1.1-1.5-1.9-3.3-2.5-5.2,.3-2.3,.6-4.7,.8-7.1l8.6,11.8c.5,.7,1.4,.8,2,.3s.8-1.4,.3-2l-10.6-14.6v-.5c3.7,1.2,9.7,3.8,13.3,8.9h0Zm-26.3-25.7c4,0,7.3,3.3,7.3,7.3v2.3h-14.5v-2.3c0-4,3.3-7.3,7.3-7.3h0Z"/></g></svg>